<svg viewBox="0 0 100 100" xmlns="http://www.w3.org/2000/svg">
  <!-- Fondo circular -->
  <circle cx="50" cy="50" r="48" fill="#4F46E5" opacity="0.1"/>

  <!-- Libro -->
  <path d="M 30 25 L 30 70 Q 30 75 35 75 L 65 75 Q 70 75 70 70 L 70 25 Q 70 20 65 20 L 35 20 Q 30 20 30 25 Z" fill="#4F46E5" stroke="#4F46E5" stroke-width="2"/>

  <!-- Lomo del libro -->
  <line x1="50" y1="25" x2="50" y2="75" stroke="#3730A3" stroke-width="1.5" opacity="0.6"/>

  <!-- P치ginas -->
  <line x1="35" y1="35" x2="65" y2="35" stroke="#E0E7FF" stroke-width="1.5" opacity="0.8"/>
  <line x1="35" y1="45" x2="65" y2="45" stroke="#E0E7FF" stroke-width="1.5" opacity="0.8"/>
  <line x1="35" y1="55" x2="65" y2="55" stroke="#E0E7FF" stroke-width="1.5" opacity="0.8"/>
  <line x1="35" y1="65" x2="65" y2="65" stroke="#E0E7FF" stroke-width="1.5" opacity="0.8"/>

  <!-- L치piz -->
  <g transform="translate(70, 35) rotate(45)">
    <!-- Madera del l치piz -->
    <rect x="-2" y="-15" width="4" height="28" fill="#FCD34D" stroke="#D97706" stroke-width="0.5"/>
    <!-- Punta del l치piz -->
    <polygon points="0,-18 -2,-15 2,-15" fill="#D97706"/>
    <!-- Goma -->
    <rect x="-2" y="13" width="4" height="4" fill="#EF4444" stroke="#DC2626" stroke-width="0.5"/>
  </g>

  <!-- Destello educativo -->
  <circle cx="45" cy="30" r="2" fill="#FCD34D" opacity="0.8"/>
  <circle cx="62" cy="55" r="1.5" fill="#FCD34D" opacity="0.6"/>
</svg>

